<svg width="192" height="192" viewBox="0 0 192 192" xmlns="http://www.w3.org/2000/svg">
  <defs>
    <linearGradient id="bgGradient" x1="0%" y1="0%" x2="100%" y2="100%">
      <stop offset="0%" style="stop-color:#3498DB;stop-opacity:1" />
      <stop offset="100%" style="stop-color:#2980B9;stop-opacity:1" />
    </linearGradient>
    <linearGradient id="monsterGradient" x1="0%" y1="0%" x2="100%" y2="100%">
      <stop offset="0%" style="stop-color:#9B59B6;stop-opacity:1" />
      <stop offset="100%" style="stop-color:#8E44AD;stop-opacity:1" />
    </linearGradient>
    <linearGradient id="antennaGradient" x1="0%" y1="0%" x2="100%" y2="100%">
      <stop offset="0%" style="stop-color:#F1C40F;stop-opacity:1" />
      <stop offset="100%" style="stop-color:#F39C12;stop-opacity:1" />
    </linearGradient>
    <filter id="shadow" x="-20%" y="-20%" width="140%" height="140%">
      <feDropShadow dx="0" dy="4" stdDeviation="8" flood-color="#2C3E50" flood-opacity="0.3"/>
    </filter>
  </defs>
  
  <!-- Background circle -->
  <circle cx="96" cy="96" r="88" fill="url(#bgGradient)" stroke="#2C3E50" stroke-width="4"/>
  
  <!-- Giggles Monster Body -->
  <circle cx="96" cy="96" r="60" fill="url(#monsterGradient)" stroke="#2C3E50" stroke-width="3" filter="url(#shadow)"/>
  
  <!-- Left Antenna -->
  <rect x="66" y="36" width="6" height="24" rx="3" fill="url(#monsterGradient)" stroke="#2C3E50" stroke-width="2" transform="rotate(-15 69 48)"/>
  <circle cx="69" cy="48" r="12" fill="url(#antennaGradient)" stroke="#2C3E50" stroke-width="2" transform="rotate(-15 69 48)"/>
  
  <!-- Right Antenna -->
  <rect x="120" y="36" width="6" height="24" rx="3" fill="url(#monsterGradient)" stroke="#2C3E50" stroke-width="2" transform="rotate(15 123 48)"/>
  <circle cx="123" cy="48" r="12" fill="url(#antennaGradient)" stroke="#2C3E50" stroke-width="2" transform="rotate(15 123 48)"/>
  
  <!-- Eye -->
  <circle cx="96" cy="76" r="30" fill="white" stroke="#2C3E50" stroke-width="2"/>
  <circle cx="96" cy="76" r="12" fill="#2C3E50"/>
  
  <!-- Mouth -->
  <path d="M 76 106 Q 96 126 116 106" stroke="#2C3E50" stroke-width="4" fill="none" stroke-linecap="round"/>
  
  <!-- Sparkle effect -->
  <circle cx="40" cy="40" r="3" fill="#F1C40F" opacity="0.8"/>
  <circle cx="152" cy="60" r="2" fill="#F1C40F" opacity="0.6"/>
  <circle cx="160" cy="140" r="2.5" fill="#F1C40F" opacity="0.7"/>
  <circle cx="50" cy="150" r="2" fill="#F1C40F" opacity="0.5"/>
</svg> 