<svg width="96" height="96" viewBox="0 0 96 96" xmlns="http://www.w3.org/2000/svg">
  <defs>
    <linearGradient id="bgGradient" x1="0%" y1="0%" x2="100%" y2="100%">
      <stop offset="0%" style="stop-color:#3498DB;stop-opacity:1" />
      <stop offset="100%" style="stop-color:#2980B9;stop-opacity:1" />
    </linearGradient>
    <linearGradient id="monsterGradient" x1="0%" y1="0%" x2="100%" y2="100%">
      <stop offset="0%" style="stop-color:#9B59B6;stop-opacity:1" />
      <stop offset="100%" style="stop-color:#8E44AD;stop-opacity:1" />
    </linearGradient>
    <linearGradient id="antennaGradient" x1="0%" y1="0%" x2="100%" y2="100%">
      <stop offset="0%" style="stop-color:#F1C40F;stop-opacity:1" />
      <stop offset="100%" style="stop-color:#F39C12;stop-opacity:1" />
    </linearGradient>
    <filter id="shadow" x="-20%" y="-20%" width="140%" height="140%">
      <feDropShadow dx="0" dy="3" stdDeviation="4" flood-color="#2C3E50" flood-opacity="0.3"/>
    </filter>
  </defs>
  
  <!-- Background circle -->
  <circle cx="48" cy="48" r="44" fill="url(#bgGradient)" stroke="#2C3E50" stroke-width="3"/>
  
  <!-- Giggles Monster Body -->
  <circle cx="48" cy="48" r="30" fill="url(#monsterGradient)" stroke="#2C3E50" stroke-width="2" filter="url(#shadow)"/>
  
  <!-- Left Antenna -->
  <rect x="33" y="18" width="5" height="22" rx="2.5" fill="url(#monsterGradient)" stroke="#2C3E50" stroke-width="1.5" transform="rotate(-15 35.5 29)"/>
  <circle cx="35.5" cy="29" r="9" fill="url(#antennaGradient)" stroke="#2C3E50" stroke-width="1.5" transform="rotate(-15 35.5 29)"/>
  
  <!-- Right Antenna -->
  <rect x="58" y="18" width="5" height="22" rx="2.5" fill="url(#monsterGradient)" stroke="#2C3E50" stroke-width="1.5" transform="rotate(15 60.5 29)"/>
  <circle cx="60.5" cy="29" r="9" fill="url(#antennaGradient)" stroke="#2C3E50" stroke-width="1.5" transform="rotate(15 60.5 29)"/>
  
  <!-- Eye -->
  <circle cx="48" cy="40" r="15" fill="white" stroke="#2C3E50" stroke-width="2"/>
  <circle cx="48" cy="40" r="6" fill="#2C3E50"/>
  
  <!-- Mouth -->
  <path d="M 38 50 Q 48 56 58 50" stroke="#2C3E50" stroke-width="3" fill="none" stroke-linecap="round"/>
  
  <!-- Sparkle effect -->
  <circle cx="20" cy="20" r="2" fill="#F1C40F" opacity="0.8"/>
  <circle cx="76" cy="30" r="1.5" fill="#F1C40F" opacity="0.6"/>
  <circle cx="80" cy="70" r="2" fill="#F1C40F" opacity="0.7"/>
  <circle cx="24" cy="74" r="1.5" fill="#F1C40F" opacity="0.5"/>
</svg> 