<svg width="72" height="72" viewBox="0 0 72 72" xmlns="http://www.w3.org/2000/svg">
  <defs>
    <linearGradient id="bgGradient" x1="0%" y1="0%" x2="100%" y2="100%">
      <stop offset="0%" style="stop-color:#3498DB;stop-opacity:1" />
      <stop offset="100%" style="stop-color:#2980B9;stop-opacity:1" />
    </linearGradient>
    <linearGradient id="monsterGradient" x1="0%" y1="0%" x2="100%" y2="100%">
      <stop offset="0%" style="stop-color:#9B59B6;stop-opacity:1" />
      <stop offset="100%" style="stop-color:#8E44AD;stop-opacity:1" />
    </linearGradient>
    <linearGradient id="antennaGradient" x1="0%" y1="0%" x2="100%" y2="100%">
      <stop offset="0%" style="stop-color:#F1C40F;stop-opacity:1" />
      <stop offset="100%" style="stop-color:#F39C12;stop-opacity:1" />
    </linearGradient>
    <filter id="shadow" x="-20%" y="-20%" width="140%" height="140%">
      <feDropShadow dx="0" dy="2" stdDeviation="3" flood-color="#2C3E50" flood-opacity="0.3"/>
    </filter>
  </defs>
  
  <!-- Background circle -->
  <circle cx="36" cy="36" r="32" fill="url(#bgGradient)" stroke="#2C3E50" stroke-width="2"/>
  
  <!-- Giggles Monster Body -->
  <circle cx="36" cy="36" r="22" fill="url(#monsterGradient)" stroke="#2C3E50" stroke-width="2" filter="url(#shadow)"/>
  
  <!-- Left Antenna -->
  <rect x="25" y="14" width="4" height="16" rx="2" fill="url(#monsterGradient)" stroke="#2C3E50" stroke-width="1" transform="rotate(-15 27 22)"/>
  <circle cx="27" cy="22" r="7" fill="url(#antennaGradient)" stroke="#2C3E50" stroke-width="1" transform="rotate(-15 27 22)"/>
  
  <!-- Right Antenna -->
  <rect x="43" y="14" width="4" height="16" rx="2" fill="url(#monsterGradient)" stroke="#2C3E50" stroke-width="1" transform="rotate(15 45 22)"/>
  <circle cx="45" cy="22" r="7" fill="url(#antennaGradient)" stroke="#2C3E50" stroke-width="1" transform="rotate(15 45 22)"/>
  
  <!-- Eye -->
  <circle cx="36" cy="30" r="11" fill="white" stroke="#2C3E50" stroke-width="1"/>
  <circle cx="36" cy="30" r="4" fill="#2C3E50"/>
  
  <!-- Mouth -->
  <path d="M 29 38 Q 36 42 43 38" stroke="#2C3E50" stroke-width="2" fill="none" stroke-linecap="round"/>
  
  <!-- Sparkle effect -->
  <circle cx="15" cy="15" r="1.5" fill="#F1C40F" opacity="0.8"/>
  <circle cx="57" cy="22" r="1" fill="#F1C40F" opacity="0.6"/>
  <circle cx="60" cy="52" r="1.5" fill="#F1C40F" opacity="0.7"/>
  <circle cx="18" cy="56" r="1" fill="#F1C40F" opacity="0.5"/>
</svg> 