<svg width="512" height="512" viewBox="0 0 512 512" xmlns="http://www.w3.org/2000/svg">
  <defs>
    <linearGradient id="bgGradient" x1="0%" y1="0%" x2="100%" y2="100%">
      <stop offset="0%" style="stop-color:#3498DB;stop-opacity:1" />
      <stop offset="100%" style="stop-color:#2980B9;stop-opacity:1" />
    </linearGradient>
    <linearGradient id="monsterGradient" x1="0%" y1="0%" x2="100%" y2="100%">
      <stop offset="0%" style="stop-color:#9B59B6;stop-opacity:1" />
      <stop offset="100%" style="stop-color:#8E44AD;stop-opacity:1" />
    </linearGradient>
    <linearGradient id="antennaGradient" x1="0%" y1="0%" x2="100%" y2="100%">
      <stop offset="0%" style="stop-color:#F1C40F;stop-opacity:1" />
      <stop offset="100%" style="stop-color:#F39C12;stop-opacity:1" />
    </linearGradient>
    <filter id="shadow" x="-20%" y="-20%" width="140%" height="140%">
      <feDropShadow dx="0" dy="8" stdDeviation="16" flood-color="#2C3E50" flood-opacity="0.3"/>
    </filter>
    <filter id="glow" x="-50%" y="-50%" width="200%" height="200%">
      <feGaussianBlur stdDeviation="4" result="coloredBlur"/>
      <feMerge> 
        <feMergeNode in="coloredBlur"/>
        <feMergeNode in="SourceGraphic"/>
      </feMerge>
    </filter>
  </defs>
  
  <!-- Background circle -->
  <circle cx="256" cy="256" r="240" fill="url(#bgGradient)" stroke="#2C3E50" stroke-width="8"/>
  
  <!-- Giggles Monster Body -->
  <circle cx="256" cy="256" r="160" fill="url(#monsterGradient)" stroke="#2C3E50" stroke-width="6" filter="url(#shadow)"/>
  
  <!-- Left Antenna -->
  <rect x="176" y="96" width="16" height="64" rx="8" fill="url(#monsterGradient)" stroke="#2C3E50" stroke-width="4" transform="rotate(-15 184 128)"/>
  <circle cx="184" cy="128" r="32" fill="url(#antennaGradient)" stroke="#2C3E50" stroke-width="4" transform="rotate(-15 184 128)" filter="url(#glow)"/>
  
  <!-- Right Antenna -->
  <rect x="320" y="96" width="16" height="64" rx="8" fill="url(#monsterGradient)" stroke="#2C3E50" stroke-width="4" transform="rotate(15 328 128)"/>
  <circle cx="328" cy="128" r="32" fill="url(#antennaGradient)" stroke="#2C3E50" stroke-width="4" transform="rotate(15 328 128)" filter="url(#glow)"/>
  
  <!-- Eye -->
  <circle cx="256" cy="208" r="80" fill="white" stroke="#2C3E50" stroke-width="4"/>
  <circle cx="256" cy="208" r="32" fill="#2C3E50"/>
  
  <!-- Eye highlight -->
  <circle cx="248" cy="200" r="8" fill="white" opacity="0.8"/>
  
  <!-- Mouth -->
  <path d="M 208 288 Q 256 328 304 288" stroke="#2C3E50" stroke-width="8" fill="none" stroke-linecap="round"/>
  
  <!-- Sparkle effects -->
  <circle cx="96" cy="96" r="8" fill="#F1C40F" opacity="0.8"/>
  <circle cx="416" cy="160" r="6" fill="#F1C40F" opacity="0.6"/>
  <circle cx="432" cy="384" r="7" fill="#F1C40F" opacity="0.7"/>
  <circle cx="128" cy="400" r="6" fill="#F1C40F" opacity="0.5"/>
  <circle cx="384" cy="96" r="5" fill="#F1C40F" opacity="0.6"/>
  <circle cx="96" cy="384" r="5" fill="#F1C40F" opacity="0.5"/>
  
  <!-- Additional decorative elements -->
  <circle cx="160" cy="160" r="4" fill="#E74C3C" opacity="0.3"/>
  <circle cx="352" cy="352" r="4" fill="#E74C3C" opacity="0.3"/>
</svg> 